<?xml version="1.0" encoding="UTF-8" standalone="no"?>
<!-- Created with Inkscape (http://www.inkscape.org/) -->

<svg
   xmlns:dc="http://purl.org/dc/elements/1.1/"
   xmlns:cc="http://creativecommons.org/ns#"
   xmlns:rdf="http://www.w3.org/1999/02/22-rdf-syntax-ns#"
   xmlns:svg="http://www.w3.org/2000/svg"
   xmlns="http://www.w3.org/2000/svg"
   xmlns:xlink="http://www.w3.org/1999/xlink"
   xmlns:sodipodi="http://sodipodi.sourceforge.net/DTD/sodipodi-0.dtd"
   xmlns:inkscape="http://www.inkscape.org/namespaces/inkscape"
   width="210mm"
   height="297mm"
   viewBox="0 0 744.09448819 1052.3622047"
   id="svg2"
   version="1.1"
   inkscape:version="0.91 r13725"
   sodipodi:docname="setup.svg">
  <sodipodi:namedview
     id="base"
     pagecolor="#ffffff"
     bordercolor="#666666"
     borderopacity="1.0"
     inkscape:pageopacity="0.0"
     inkscape:pageshadow="2"
     inkscape:zoom="0.98994949"
     inkscape:cx="305.62648"
     inkscape:cy="674.39328"
     inkscape:document-units="px"
     inkscape:current-layer="layer1"
     showgrid="false"
     inkscape:window-width="1280"
     inkscape:window-height="695"
     inkscape:window-x="0"
     inkscape:window-y="1"
     inkscape:window-maximized="1" />
  <defs
     id="defs4">
    <marker
       inkscape:isstock="true"
       style="overflow:visible;"
       id="Arrow1Lend"
       refX="0.0"
       refY="0.0"
       orient="auto"
       inkscape:stockid="Arrow1Lend">
      <path
         transform="scale(0.8) rotate(180) translate(12.5,0)"
         style="fill-rule:evenodd;stroke:#000000;stroke-width:1pt;stroke-opacity:1;fill:#000000;fill-opacity:1"
         d="M 0.0,0.0 L 5.0,-5.0 L -12.5,0.0 L 5.0,5.0 L 0.0,0.0 z "
         id="path4581" />
    </marker>
    <linearGradient
       inkscape:collect="always"
       id="linearGradient4156">
      <stop
         style="stop-color:#f2f2f2;stop-opacity:1;"
         offset="0"
         id="stop4158" />
      <stop
         style="stop-color:#f2f2f2;stop-opacity:0;"
         offset="1"
         id="stop4160" />
    </linearGradient>
    <linearGradient
       inkscape:collect="always"
       xlink:href="#linearGradient4156"
       id="linearGradient4162"
       x1="360.62445"
       y1="482.63617"
       x2="588.91895"
       y2="513.95087"
       gradientUnits="userSpaceOnUse" />
  </defs>
  <metadata
     id="metadata7">
    <rdf:RDF>
      <cc:Work
         rdf:about="">
        <dc:format>image/svg+xml</dc:format>
        <dc:type
           rdf:resource="http://purl.org/dc/dcmitype/StillImage" />
        <dc:title></dc:title>
      </cc:Work>
    </rdf:RDF>
  </metadata>
  <g
     inkscape:label="Layer 1"
     inkscape:groupmode="layer"
     id="layer1">
    <path
       style="fill:none;fill-rule:evenodd;stroke:#000000;stroke-width:1px;stroke-linecap:butt;stroke-linejoin:miter;stroke-opacity:0.205"
       d="m 96.428571,398.07649 c 0,0 75.983019,-63.47432 122.499999,-68.57143 59.1906,-6.48582 134.11467,29.03053 171.07143,51.42857 0,0 67.85715,50 111.07143,50 43.21429,0 113.92858,-32.85714 113.92858,-32.85714"
       id="path4140"
       inkscape:connector-curvature="0"
       sodipodi:nodetypes="cassc" />
    <path
       style="fill:url(#linearGradient4162);fill-opacity:1;stroke:#000000;stroke-width:0.2268903;stroke-miterlimit:4;stroke-dasharray:none;stroke-dashoffset:0;stroke-opacity:1"
       d="m 96.639768,475.09493 0,-75.66738 4.798222,-3.95975 c 26.12839,-21.56254 63.17823,-47.11706 86.58871,-57.14186 17.95512,-7.68871 25.98697,-10.11631 45.86754,-10.06538 19.13191,0.049 29.75859,1.95037 51.01271,7.47256 36.47411,9.47662 78.96856,29.55523 109.47839,49.62688 36.24149,23.84235 62.21389,37.10339 84.59717,43.19377 10.32739,2.81004 26.16407,3.65128 38.19425,2.02888 20.54834,-2.77117 50.40679,-11.76805 81.85294,-24.66375 l 15.81832,-6.48691 0,75.66516 0,75.66515 -259.10412,0 -259.104132,0 z"
       id="path4142"
       inkscape:connector-curvature="0"
       sodipodi:nodetypes="ccsssssssscccccc" />
    <g
       id="g4345"
       transform="matrix(0.27259832,0,0,0.27259832,454.41247,175.60184)">
      <g
         word-spacing="normal"
         letter-spacing="normal"
         font-size-adjust="none"
         font-stretch="normal"
         font-weight="normal"
         font-variant="normal"
         font-style="normal"
         stroke-miterlimit="10.433"
         xml:space="preserve"
         transform="matrix(1.0629921,0,0,-1.0629921,-186.02362,789.27165)"
         id="g4347"
         style="font-style:normal;font-variant:normal;font-weight:normal;font-stretch:normal;letter-spacing:normal;word-spacing:normal;text-anchor:start;fill:none;fill-opacity:1;fill-rule:evenodd;stroke:#000000;stroke-linecap:butt;stroke-linejoin:miter;stroke-miterlimit:10.43299961;stroke-dasharray:none;stroke-dashoffset:0;stroke-opacity:1"><path
           id="path4349"
           d="m 468,438.93 -0.02,0.05 -0.02,0.05 -0.02,0.04 -0.02,0.05 -0.03,0.09 -0.04,0.08 -0.04,0.07 -0.03,0.07 -0.04,0.07 -0.04,0.06 -0.03,0.06 -0.04,0.05 -0.03,0.04 -0.04,0.05 -0.04,0.03 -0.04,0.04 -0.04,0.03 -0.04,0.03 -0.05,0.02 -0.05,0.02 -0.05,0.02 -0.05,0.02 -0.06,0.01 -0.06,0.01 -0.06,0.01 -0.07,0.01 -0.07,0 -0.07,0.01 -0.08,0 -0.08,0 -0.09,0 -0.09,0 -0.1,0 -0.11,0 -8.42,0 0,-1.54 1.2,0 c 3.84,0 3.93,-0.55 3.93,-2.34 l 0,-24.91 c 0,-1.34 0,-3.69 -5.13,-3.69 l 0,-1.54 11.66,0 0,1.54 c -5.13,0 -5.13,2.35 -5.13,3.69 l 0,26.85 0.05,0 12,-30.98 c 0.25,-0.65 0.5,-1.1 1,-1.1 0.55,0 0.7,0.4 0.9,0.95 l 12.25,31.53 0.05,0 0,-28.59 c 0,-1.8 -0.1,-2.35 -3.94,-2.35 l -1.19,0 0,-1.54 14.3,0 0,1.54 -1.2,0 c -3.84,0 -3.93,0.55 -3.93,2.35 l 0,26.25 c 0,1.79 0.09,2.34 3.93,2.34 l 1.2,0 0,1.54 -8.42,0 c -1.3,0 -1.3,-0.05 -1.65,-0.95 l -10.91,-28.04 z"
           inkscape:connector-curvature="0"
           style="fill:#000000;stroke-width:0" /><path
           id="path4351"
           d="m 517.59,409.79 0.02,-0.19 0.03,-0.19 0.03,-0.19 0.04,-0.18 0.05,-0.19 0.06,-0.18 0.06,-0.18 0.07,-0.18 0.07,-0.18 0.08,-0.18 0.09,-0.17 0.1,-0.16 0.1,-0.17 0.1,-0.15 0.12,-0.16 0.12,-0.14 0.12,-0.15 0.13,-0.13 0.14,-0.13 0.15,-0.12 0.15,-0.12 0.15,-0.1 0.17,-0.1 0.17,-0.09 0.17,-0.08 0.18,-0.07 0.19,-0.07 0.19,-0.05 0.2,-0.04 0.21,-0.03 0.21,-0.01 0.21,-0.01 c 1.05,0 4.09,0.7 4.09,4.73 l 0,2.79 -1.25,0 0,-2.79 c 0,-2.89 -1.24,-3.18 -1.79,-3.18 -1.64,0 -1.84,2.24 -1.84,2.48 l 0,9.97 c 0,2.09 0,4.03 -1.8,5.88 -1.94,1.94 -4.43,2.74 -6.82,2.74 -4.09,0 -7.52,-2.34 -7.52,-5.63 0,-1.5 0.99,-2.34 2.29,-2.34 1.39,0 2.29,0.99 2.29,2.29 0,0.59 -0.25,2.24 -2.54,2.29 1.35,1.74 3.78,2.29 5.38,2.29 2.44,0 5.28,-1.94 5.28,-6.38 l 0,-1.84 0,-1.04 0,-4.99 c 0,-4.73 -3.59,-6.42 -5.83,-6.42 -2.44,0 -4.48,1.74 -4.48,4.23 0,2.74 2.09,6.88 10.31,7.18 l 0,0 0,1.04 c -2.54,-0.15 -6.03,-0.3 -9.17,-1.79 -3.73,-1.69 -4.98,-4.28 -4.98,-6.48 0,-4.03 4.84,-5.28 7.97,-5.28 3.29,0 5.58,2 6.53,4.34 z"
           inkscape:connector-curvature="0"
           style="fill:#000000;stroke-width:0" /><path
           id="path4353"
           d="m 534.62,425.93 7.12,0 0,1.54 -7.12,0 0,9.17 -1.25,0 c -0.05,-4.09 -1.54,-9.42 -6.42,-9.62 l 0,-1.09 4.23,0 0,-13.75 c 0,-6.13 4.63,-6.73 6.42,-6.73 3.55,0 4.94,3.54 4.94,6.73 l 0,2.84 -1.25,0 0,-2.74 c 0,-3.69 -1.49,-5.58 -3.33,-5.58 -3.34,0 -3.34,4.53 -3.34,5.38 z"
           inkscape:connector-curvature="0"
           style="fill:#000000;stroke-width:0" /><path
           id="path4355"
           d="m 551.53,417.51 0.05,1.04 c 0.3,7.43 4.48,8.67 6.18,8.67 5.13,0 5.63,-6.72 5.63,-8.67 l -11.81,0 -0.05,-1.04 13.9,0 c 1.09,0 1.24,0 1.24,1.04 0,4.93 -2.69,9.77 -8.91,9.77 -5.78,0 -10.36,-5.14 -10.36,-11.36 0,-6.67 5.22,-11.51 10.95,-11.51 6.08,0 8.32,5.53 8.32,6.48 0,0.5 -0.4,0.6 -0.65,0.6 -0.44,0 -0.54,-0.3 -0.64,-0.7 -1.75,-5.13 -6.23,-5.13 -6.73,-5.13 -2.49,0 -4.48,1.49 -5.63,3.34 -1.49,2.39 -1.49,5.67 -1.49,7.47 z"
           inkscape:connector-curvature="0"
           style="fill:#000000;stroke-width:0" /><path
           id="path4357"
           d="m 576.32,422.54 0,5.48 -6.92,-0.55 0,-1.54 c 3.48,0 3.88,-0.35 3.88,-2.79 l 0,-13.35 c 0,-2.25 -0.55,-2.25 -3.88,-2.25 l 0,-1.54 12,0 0,1.54 -1.05,0 c -3.68,0 -3.78,0.55 -3.78,2.35 l 0,7.66 c 0,4.94 2.09,9.37 5.88,9.37 0.34,0 0.45,0 0.54,-0.05 -0.15,-0.05 -1.14,-0.65 -1.14,-1.94 0,-1.39 1.05,-2.14 2.14,-2.14 0.9,0 2.14,0.59 2.14,2.19 0,1.59 -1.54,3.04 -3.68,3.04 -3.64,0 -5.43,-3.34 -6.13,-5.48 z"
           inkscape:connector-curvature="0"
           style="fill:#000000;stroke-width:0" /><path
           id="path4359"
           d="m 595.82,428.02 -6.98,-0.55 0,-1.54 c 3.24,0 3.69,-0.31 3.69,-2.75 l 0,-13.39 c 0,-2.25 -0.55,-2.25 -3.88,-2.25 l 0,-1.54 10.65,0 0,1.54 c -3.28,0 -3.48,0.25 -3.48,2.19 z"
           inkscape:connector-curvature="0"
           style="fill:#000000;stroke-width:0" /><path
           id="path4361"
           d="m 596.02,436.68 -0.01,0.15 -0.01,0.15 -0.02,0.14 -0.02,0.13 -0.03,0.14 -0.04,0.13 -0.04,0.13 -0.05,0.12 -0.06,0.12 -0.06,0.11 -0.06,0.11 -0.07,0.11 -0.08,0.1 -0.08,0.1 -0.08,0.09 -0.09,0.09 -0.09,0.09 -0.1,0.07 -0.1,0.08 -0.11,0.07 -0.1,0.06 -0.11,0.06 -0.12,0.06 -0.11,0.05 -0.12,0.04 -0.12,0.04 -0.13,0.03 -0.12,0.03 -0.13,0.02 -0.13,0.01 -0.12,0.01 -0.13,0 c -1.55,0 -2.65,-1.34 -2.65,-2.64 0,-1.34 1.1,-2.64 2.65,-2.64 1.39,0 2.64,1.05 2.64,2.64 z"
           inkscape:connector-curvature="0"
           style="fill:#000000;stroke-width:0" /><path
           id="path4363"
           d="m 617.59,409.79 0.02,-0.19 0.03,-0.19 0.03,-0.19 0.04,-0.18 0.05,-0.19 0.06,-0.18 0.06,-0.18 0.07,-0.18 0.07,-0.18 0.08,-0.18 0.09,-0.17 0.1,-0.16 0.1,-0.17 0.1,-0.15 0.12,-0.16 0.12,-0.14 0.12,-0.15 0.13,-0.13 0.14,-0.13 0.15,-0.12 0.15,-0.12 0.15,-0.1 0.17,-0.1 0.17,-0.09 0.17,-0.08 0.18,-0.07 0.19,-0.07 0.19,-0.05 0.2,-0.04 0.21,-0.03 0.21,-0.01 0.21,-0.01 c 1.05,0 4.09,0.7 4.09,4.73 l 0,2.79 -1.25,0 0,-2.79 c 0,-2.89 -1.24,-3.18 -1.79,-3.18 -1.64,0 -1.84,2.24 -1.84,2.48 l 0,9.97 c 0,2.09 0,4.03 -1.8,5.88 -1.94,1.94 -4.43,2.74 -6.82,2.74 -4.09,0 -7.53,-2.34 -7.53,-5.63 0,-1.5 1,-2.34 2.3,-2.34 1.39,0 2.29,0.99 2.29,2.29 0,0.59 -0.25,2.24 -2.54,2.29 1.35,1.74 3.78,2.29 5.38,2.29 2.44,0 5.28,-1.94 5.28,-6.38 l 0,-1.84 0,-1.04 0,-4.99 c 0,-4.73 -3.59,-6.42 -5.83,-6.42 -2.44,0 -4.48,1.74 -4.48,4.23 0,2.74 2.09,6.88 10.31,7.18 l 0,0 0,1.04 c -2.54,-0.15 -6.03,-0.3 -9.17,-1.79 -3.73,-1.69 -4.98,-4.28 -4.98,-6.48 0,-4.03 4.84,-5.28 7.97,-5.28 3.29,0 5.58,2 6.53,4.34 z"
           inkscape:connector-curvature="0"
           style="fill:#000000;stroke-width:0" /><path
           id="path4365"
           d="m 634.82,440.57 -7.17,-0.55 0,-1.54 c 3.48,0 3.88,-0.35 3.88,-2.79 l 0,-25.9 c 0,-2.25 -0.55,-2.25 -3.88,-2.25 l 0,-1.54 11.05,0 0,1.54 c -3.34,0 -3.88,0 -3.88,2.25 z"
           inkscape:connector-curvature="0"
           style="fill:#000000;stroke-width:0" /><path
           id="path4367"
           d="m 651.68,421.18 0,0.04 0,0.04 0,0.04 0,0.04 0,0.04 0,0.04 0,0.03 0,0.04 -0.01,0.03 0,0.03 0,0.04 0,0.03 -0.01,0.02 0,0.03 0,0.03 -0.01,0.03 0,0.02 0,0.02 -0.02,0.05 -0.01,0.04 -0.01,0.04 -0.02,0.03 -0.02,0.03 -0.02,0.03 -0.03,0.03 -0.02,0.02 -0.03,0.02 -0.04,0.02 -0.03,0.01 -0.04,0.01 -0.05,0.02 -0.05,0 -0.02,0.01 -0.03,0 -0.03,0.01 -0.02,0 -0.03,0 -0.03,0 -0.04,0 -0.03,0.01 -0.03,0 -0.04,0 -0.03,0 -0.04,0 -0.04,0 -0.04,0 -0.04,0 -0.04,0 -0.05,0 -0.04,0 c -2.24,-2.19 -5.41,-2.23 -6.84,-2.23 l 0,-1.25 c 0.84,0 3.14,0 5.05,0.97 l 0,-17.78 c 0,-1.15 0,-1.61 -3.48,-1.61 l -1.33,0 0,-1.25 12.45,0 0,1.25 -1.32,0 c -3.49,0 -3.49,0.46 -3.49,1.61 z"
           inkscape:connector-curvature="0"
           style="fill:#000000;stroke-width:0" /></g>    </g>
    <g
       transform="matrix(0.32390507,0,0,0.32390507,24.701031,399.13498)"
       id="g4461">
      <g
         style="font-style:normal;font-variant:normal;font-weight:normal;font-stretch:normal;letter-spacing:normal;word-spacing:normal;text-anchor:start;fill:none;fill-opacity:1;fill-rule:evenodd;stroke:#000000;stroke-linecap:butt;stroke-linejoin:miter;stroke-miterlimit:10.43299961;stroke-dasharray:none;stroke-dashoffset:0;stroke-opacity:1"
         id="g4463"
         transform="matrix(1.0629921,0,0,-1.0629921,-186.02362,789.27165)"
         xml:space="preserve"
         stroke-miterlimit="10.433"
         font-style="normal"
         font-variant="normal"
         font-weight="normal"
         font-stretch="normal"
         font-size-adjust="none"
         letter-spacing="normal"
         word-spacing="normal"><path
           style="fill:#000000;stroke-width:0"
           inkscape:connector-curvature="0"
           d="m 468,438.93 -0.02,0.05 -0.02,0.05 -0.02,0.04 -0.02,0.05 -0.03,0.09 -0.04,0.08 -0.04,0.07 -0.03,0.07 -0.04,0.07 -0.04,0.06 -0.03,0.06 -0.04,0.05 -0.03,0.04 -0.04,0.05 -0.04,0.03 -0.04,0.04 -0.04,0.03 -0.04,0.03 -0.05,0.02 -0.05,0.02 -0.05,0.02 -0.05,0.02 -0.06,0.01 -0.06,0.01 -0.06,0.01 -0.07,0.01 -0.07,0 -0.07,0.01 -0.08,0 -0.08,0 -0.09,0 -0.09,0 -0.1,0 -0.11,0 -8.42,0 0,-1.54 1.2,0 c 3.84,0 3.93,-0.55 3.93,-2.34 l 0,-24.91 c 0,-1.34 0,-3.69 -5.13,-3.69 l 0,-1.54 11.66,0 0,1.54 c -5.13,0 -5.13,2.35 -5.13,3.69 l 0,26.85 0.05,0 12,-30.98 c 0.25,-0.65 0.5,-1.1 1,-1.1 0.55,0 0.7,0.4 0.9,0.95 l 12.25,31.53 0.05,0 0,-28.59 c 0,-1.8 -0.1,-2.35 -3.94,-2.35 l -1.19,0 0,-1.54 14.3,0 0,1.54 -1.2,0 c -3.84,0 -3.93,0.55 -3.93,2.35 l 0,26.25 c 0,1.79 0.09,2.34 3.93,2.34 l 1.2,0 0,1.54 -8.42,0 c -1.3,0 -1.3,-0.05 -1.65,-0.95 l -10.91,-28.04 z"
           id="path4465" /><path
           style="fill:#000000;stroke-width:0"
           inkscape:connector-curvature="0"
           d="m 517.59,409.79 0.02,-0.19 0.03,-0.19 0.03,-0.19 0.04,-0.18 0.05,-0.19 0.06,-0.18 0.06,-0.18 0.07,-0.18 0.07,-0.18 0.08,-0.18 0.09,-0.17 0.1,-0.16 0.1,-0.17 0.1,-0.15 0.12,-0.16 0.12,-0.14 0.12,-0.15 0.13,-0.13 0.14,-0.13 0.15,-0.12 0.15,-0.12 0.15,-0.1 0.17,-0.1 0.17,-0.09 0.17,-0.08 0.18,-0.07 0.19,-0.07 0.19,-0.05 0.2,-0.04 0.21,-0.03 0.21,-0.01 0.21,-0.01 c 1.05,0 4.09,0.7 4.09,4.73 l 0,2.79 -1.25,0 0,-2.79 c 0,-2.89 -1.24,-3.18 -1.79,-3.18 -1.64,0 -1.84,2.24 -1.84,2.48 l 0,9.97 c 0,2.09 0,4.03 -1.8,5.88 -1.94,1.94 -4.43,2.74 -6.82,2.74 -4.09,0 -7.52,-2.34 -7.52,-5.63 0,-1.5 0.99,-2.34 2.29,-2.34 1.39,0 2.29,0.99 2.29,2.29 0,0.59 -0.25,2.24 -2.54,2.29 1.35,1.74 3.78,2.29 5.38,2.29 2.44,0 5.28,-1.94 5.28,-6.38 l 0,-1.84 0,-1.04 0,-4.99 c 0,-4.73 -3.59,-6.42 -5.83,-6.42 -2.44,0 -4.48,1.74 -4.48,4.23 0,2.74 2.09,6.88 10.31,7.18 l 0,0 0,1.04 c -2.54,-0.15 -6.03,-0.3 -9.17,-1.79 -3.73,-1.69 -4.98,-4.28 -4.98,-6.48 0,-4.03 4.84,-5.28 7.97,-5.28 3.29,0 5.58,2 6.53,4.34 z"
           id="path4467" /><path
           style="fill:#000000;stroke-width:0"
           inkscape:connector-curvature="0"
           d="m 534.62,425.93 7.12,0 0,1.54 -7.12,0 0,9.17 -1.25,0 c -0.05,-4.09 -1.54,-9.42 -6.42,-9.62 l 0,-1.09 4.23,0 0,-13.75 c 0,-6.13 4.63,-6.73 6.42,-6.73 3.55,0 4.94,3.54 4.94,6.73 l 0,2.84 -1.25,0 0,-2.74 c 0,-3.69 -1.49,-5.58 -3.33,-5.58 -3.34,0 -3.34,4.53 -3.34,5.38 z"
           id="path4469" /><path
           style="fill:#000000;stroke-width:0"
           inkscape:connector-curvature="0"
           d="m 551.53,417.51 0.05,1.04 c 0.3,7.43 4.48,8.67 6.18,8.67 5.13,0 5.63,-6.72 5.63,-8.67 l -11.81,0 -0.05,-1.04 13.9,0 c 1.09,0 1.24,0 1.24,1.04 0,4.93 -2.69,9.77 -8.91,9.77 -5.78,0 -10.36,-5.14 -10.36,-11.36 0,-6.67 5.22,-11.51 10.95,-11.51 6.08,0 8.32,5.53 8.32,6.48 0,0.5 -0.4,0.6 -0.65,0.6 -0.44,0 -0.54,-0.3 -0.64,-0.7 -1.75,-5.13 -6.23,-5.13 -6.73,-5.13 -2.49,0 -4.48,1.49 -5.63,3.34 -1.49,2.39 -1.49,5.67 -1.49,7.47 z"
           id="path4471" /><path
           style="fill:#000000;stroke-width:0"
           inkscape:connector-curvature="0"
           d="m 576.32,422.54 0,5.48 -6.92,-0.55 0,-1.54 c 3.48,0 3.88,-0.35 3.88,-2.79 l 0,-13.35 c 0,-2.25 -0.55,-2.25 -3.88,-2.25 l 0,-1.54 12,0 0,1.54 -1.05,0 c -3.68,0 -3.78,0.55 -3.78,2.35 l 0,7.66 c 0,4.94 2.09,9.37 5.88,9.37 0.34,0 0.45,0 0.54,-0.05 -0.15,-0.05 -1.14,-0.65 -1.14,-1.94 0,-1.39 1.05,-2.14 2.14,-2.14 0.9,0 2.14,0.59 2.14,2.19 0,1.59 -1.54,3.04 -3.68,3.04 -3.64,0 -5.43,-3.34 -6.13,-5.48 z"
           id="path4473" /><path
           style="fill:#000000;stroke-width:0"
           inkscape:connector-curvature="0"
           d="m 595.82,428.02 -6.98,-0.55 0,-1.54 c 3.24,0 3.69,-0.31 3.69,-2.75 l 0,-13.39 c 0,-2.25 -0.55,-2.25 -3.88,-2.25 l 0,-1.54 10.65,0 0,1.54 c -3.28,0 -3.48,0.25 -3.48,2.19 z"
           id="path4475" /><path
           style="fill:#000000;stroke-width:0"
           inkscape:connector-curvature="0"
           d="m 596.02,436.68 -0.01,0.15 -0.01,0.15 -0.02,0.14 -0.02,0.13 -0.03,0.14 -0.04,0.13 -0.04,0.13 -0.05,0.12 -0.06,0.12 -0.06,0.11 -0.06,0.11 -0.07,0.11 -0.08,0.1 -0.08,0.1 -0.08,0.09 -0.09,0.09 -0.09,0.09 -0.1,0.07 -0.1,0.08 -0.11,0.07 -0.1,0.06 -0.11,0.06 -0.12,0.06 -0.11,0.05 -0.12,0.04 -0.12,0.04 -0.13,0.03 -0.12,0.03 -0.13,0.02 -0.13,0.01 -0.12,0.01 -0.13,0 c -1.55,0 -2.65,-1.34 -2.65,-2.64 0,-1.34 1.1,-2.64 2.65,-2.64 1.39,0 2.64,1.05 2.64,2.64 z"
           id="path4477" /><path
           style="fill:#000000;stroke-width:0"
           inkscape:connector-curvature="0"
           d="m 617.59,409.79 0.02,-0.19 0.03,-0.19 0.03,-0.19 0.04,-0.18 0.05,-0.19 0.06,-0.18 0.06,-0.18 0.07,-0.18 0.07,-0.18 0.08,-0.18 0.09,-0.17 0.1,-0.16 0.1,-0.17 0.1,-0.15 0.12,-0.16 0.12,-0.14 0.12,-0.15 0.13,-0.13 0.14,-0.13 0.15,-0.12 0.15,-0.12 0.15,-0.1 0.17,-0.1 0.17,-0.09 0.17,-0.08 0.18,-0.07 0.19,-0.07 0.19,-0.05 0.2,-0.04 0.21,-0.03 0.21,-0.01 0.21,-0.01 c 1.05,0 4.09,0.7 4.09,4.73 l 0,2.79 -1.25,0 0,-2.79 c 0,-2.89 -1.24,-3.18 -1.79,-3.18 -1.64,0 -1.84,2.24 -1.84,2.48 l 0,9.97 c 0,2.09 0,4.03 -1.8,5.88 -1.94,1.94 -4.43,2.74 -6.82,2.74 -4.09,0 -7.53,-2.34 -7.53,-5.63 0,-1.5 1,-2.34 2.3,-2.34 1.39,0 2.29,0.99 2.29,2.29 0,0.59 -0.25,2.24 -2.54,2.29 1.35,1.74 3.78,2.29 5.38,2.29 2.44,0 5.28,-1.94 5.28,-6.38 l 0,-1.84 0,-1.04 0,-4.99 c 0,-4.73 -3.59,-6.42 -5.83,-6.42 -2.44,0 -4.48,1.74 -4.48,4.23 0,2.74 2.09,6.88 10.31,7.18 l 0,0 0,1.04 c -2.54,-0.15 -6.03,-0.3 -9.17,-1.79 -3.73,-1.69 -4.98,-4.28 -4.98,-6.48 0,-4.03 4.84,-5.28 7.97,-5.28 3.29,0 5.58,2 6.53,4.34 z"
           id="path4479" /><path
           style="fill:#000000;stroke-width:0"
           inkscape:connector-curvature="0"
           d="m 634.82,440.57 -7.17,-0.55 0,-1.54 c 3.48,0 3.88,-0.35 3.88,-2.79 l 0,-25.9 c 0,-2.25 -0.55,-2.25 -3.88,-2.25 l 0,-1.54 11.05,0 0,1.54 c -3.34,0 -3.88,0 -3.88,2.25 z"
           id="path4481" /><path
           style="fill:#000000;stroke-width:0"
           inkscape:connector-curvature="0"
           d="m 657.61,405.35 -1.19,0 c -0.1,-0.77 -0.45,-2.83 -0.9,-3.18 -0.28,-0.21 -2.97,-0.21 -3.45,-0.21 l -6.42,0 c 3.66,3.25 4.88,4.22 6.97,5.86 2.58,2.06 4.99,4.22 4.99,7.54 0,4.21 -3.7,6.79 -8.16,6.79 -4.33,0 -7.25,-3.03 -7.25,-6.24 0,-1.78 1.5,-1.95 1.84,-1.95 0.84,0 1.86,0.59 1.86,1.85 0,0.62 -0.25,1.85 -2.06,1.85 1.08,2.47 3.45,3.24 5.09,3.24 3.48,0 5.3,-2.72 5.3,-5.54 0,-3.04 -2.16,-5.45 -3.28,-6.7 l -8.4,-8.3 c -0.35,-0.31 -0.35,-0.38 -0.35,-1.36 l 14.36,0 z"
           id="path4483" /></g>    </g>
    <path
       sodipodi:nodetypes="cassccccc"
       inkscape:connector-curvature="0"
       id="path4570"
       d="m 615.1829,242.72492 c 0,0 -93.47249,-36.68097 -142.56033,-36.92749 -46.87952,-0.23542 -103.26512,43.16614 -136.49431,33.89703 -36.09311,-10.06799 -143.5769,-35.49955 -212.00374,-16.96083 -11.24387,3.04627 -28.665104,19.99129 -28.665104,19.99129 l 0,307.59145 517.703184,0 1.95263,-1.12736 z"
       style="fill:none;fill-rule:evenodd;stroke:#000000;stroke-width:1px;stroke-linecap:butt;stroke-linejoin:miter;stroke-opacity:0.39500001" />
    <rect
       style="fill:#800080;fill-opacity:1;stroke:#800080;stroke-width:3;stroke-miterlimit:4;stroke-dasharray:none"
       id="rect4249"
       width="25.253813"
       height="25.253813"
       x="163.64471"
       y="199.79346" />
    <rect
       y="194.74269"
       x="477.80215"
       height="25.253813"
       width="25.253813"
       id="rect4251"
       style="fill:#800080;fill-opacity:1;stroke:#800080;stroke-width:3;stroke-miterlimit:4;stroke-dasharray:none" />
    <rect
       style="fill:#800080;fill-opacity:1;stroke:#800080;stroke-width:3;stroke-miterlimit:4;stroke-dasharray:none"
       id="rect4253"
       width="25.253813"
       height="25.253813"
       x="366.68536"
       y="218.98634" />
    <rect
       y="210.90512"
       x="252.53813"
       height="25.253813"
       width="25.253813"
       id="rect4255"
       style="fill:#800080;fill-opacity:1;stroke:#800080;stroke-width:3;stroke-miterlimit:4;stroke-dasharray:none" />
    <text
       xml:space="preserve"
       style="font-style:normal;font-weight:normal;font-size:16.50582695px;line-height:125%;font-family:sans-serif;letter-spacing:0px;word-spacing:0px;fill:#000000;fill-opacity:1;stroke:none;stroke-width:1px;stroke-linecap:butt;stroke-linejoin:miter;stroke-opacity:1"
       x="298.28052"
       y="174.87231"
       id="text4257"
       sodipodi:linespacing="125%"><tspan
         sodipodi:role="line"
         id="tspan4259"
         x="298.28052"
         y="174.87231">Receivers</tspan></text>
    <circle
       style="fill:#ffffff;fill-opacity:1;stroke:#ff0000;stroke-width:3;stroke-miterlimit:4;stroke-dasharray:none"
       id="path4263"
       cx="454.06357"
       cy="381.11584"
       r="41.921329" />
    <circle
       r="41.921329"
       cy="381.11584"
       cx="454.06357"
       id="circle4265"
       style="fill:#ffffff;fill-opacity:1;stroke:#ff0000;stroke-width:3;stroke-miterlimit:4;stroke-dasharray:none" />
    <circle
       style="fill:#ffffff;fill-opacity:1;stroke:#ff0000;stroke-width:2.51145673;stroke-miterlimit:4;stroke-dasharray:none"
       id="circle4267"
       cx="454.06357"
       cy="381.11584"
       r="35.094532" />
    <circle
       r="27.29248"
       cy="381.11584"
       cx="454.06357"
       id="circle4269"
       style="fill:#ffffff;fill-opacity:1;stroke:#ff0000;stroke-width:1.9531213;stroke-miterlimit:4;stroke-dasharray:none" />
    <circle
       style="fill:#ffffff;fill-opacity:1;stroke:#ff0000;stroke-width:1.18541026;stroke-miterlimit:4;stroke-dasharray:none"
       id="circle4271"
       cx="454.06357"
       cy="381.11584"
       r="16.564657" />
    <circle
       cy="381.11584"
       cx="454.06357"
       id="circle4273"
       style="fill:#000000;fill-opacity:0;stroke:#ff0000;stroke-width:0.69686687;stroke-miterlimit:4;stroke-dasharray:none"
       r="9.7378616" />
    <text
       sodipodi:linespacing="125%"
       id="text4275"
       y="174.87231"
       x="298.28052"
       style="font-style:normal;font-weight:normal;font-size:16.50582695px;line-height:125%;font-family:sans-serif;letter-spacing:0px;word-spacing:0px;fill:#000000;fill-opacity:1;stroke:none;stroke-width:1px;stroke-linecap:butt;stroke-linejoin:miter;stroke-opacity:1"
       xml:space="preserve"><tspan
         y="174.87231"
         x="298.28052"
         id="tspan4277"
         sodipodi:role="line">Receivers</tspan></text>
    <text
       xml:space="preserve"
       style="font-style:normal;font-weight:normal;font-size:16.50582695px;line-height:125%;font-family:sans-serif;letter-spacing:0px;word-spacing:0px;fill:#000000;fill-opacity:1;stroke:none;stroke-width:1px;stroke-linecap:butt;stroke-linejoin:miter;stroke-opacity:1"
       x="497.28058"
       y="416.29877"
       id="text4279"
       sodipodi:linespacing="125%"><tspan
         sodipodi:role="line"
         id="tspan4281"
         x="497.28058"
         y="416.29877">Source</tspan></text>
  </g>
</svg>
